<?xml version="1.0" standalone="no"?>
<!DOCTYPE svg PUBLIC "-//W3C//DTD SVG 20010904//EN"
 "http://www.w3.org/TR/2001/REC-SVG-20010904/DTD/svg10.dtd">
<svg version="1.0" xmlns="http://www.w3.org/2000/svg"
 width="220.000000pt" height="229.000000pt" viewBox="0 0 220.000000 229.000000"
 preserveAspectRatio="xMidYMid meet">

<g transform="translate(0.000000,229.000000) scale(0.100000,-0.100000)"
fill="#000000" stroke="none">
<path d="M670 1718 l-425 -283 -8 -160 c-4 -88 -6 -178 -5 -201 l3 -40 444
252 444 253 207 -107 207 -107 186 90 c103 50 185 93 184 97 -2 9 -794 488
-805 488 -4 0 -199 -127 -432 -282z"/>
<path d="M680 962 l-465 -237 -12 -205 c-6 -113 -12 -205 -12 -206 -1 -1 -39
-16 -86 -34 -47 -18 -82 -36 -78 -40 4 -4 251 -58 547 -120 l540 -112 99 27
99 28 -6 116 c-4 64 -9 139 -12 168 -5 43 -3 53 12 61 11 5 214 78 452 162
238 85 429 157 425 161 -7 6 -1005 458 -1028 464 -5 2 -219 -103 -475 -233z"/>
</g>
</svg>
